<svg version="1.1" id="Layer_1" xmlns="http://www.w3.org/2000/svg" xmlns:xlink="http://www.w3.org/1999/xlink" x="0px" y="0px"
	 viewBox="0 0 150 60" style="enable-background:new 0 0 150 60;" xml:space="preserve">
<style type="text/css">
	.st0{fill:#2B0A57;}
</style>
<g>
	<path class="st0" d="M80.4,30.8c0-5.6-4.3-10.1-9.7-10.1c-1.3,0-2.6,0.3-3.8,0.8v3.8c1-0.6,2.1-1,3.4-1c3.5,0,6.4,2.9,6.4,6.6
		c0,3.6-2.9,6.6-6.4,6.6c-3.5,0-6.4-2.9-6.4-6.6V12.5h-4v27.8h4V38c1.8,1.8,4.2,2.9,6.8,2.9C76,40.9,80.4,36.4,80.4,30.8"/>
	<path class="st0" d="M99.6,40.3h4V21.1h-4v9.7c0,3.6-2.9,6.6-6.4,6.6c-3.5,0-6.4-2.9-6.4-6.6c0-3.6,2.9-6.6,6.4-6.6
		c1.3,0,2.4,0.4,3.4,1v-3.8c-1.2-0.5-2.4-0.8-3.8-0.8c-5.4,0-9.7,4.5-9.7,10.1s4.3,10.1,9.7,10.1c2.7,0,5.1-1.1,6.9-2.9V40.3
		L99.6,40.3z"/>
	<g>
		<rect x="107.1" y="21.1" class="st0" width="4" height="19.2"/>
		<path class="st0" d="M117.6,20.7c-1.3,0-2.4,0.2-3.5,0.7v3.5c0.8-0.4,1.7-0.5,2.5-0.5c2.7,0,4.8,2.1,4.8,4.8v11.1h4V28.5
			C125.4,24.2,121.9,20.7,117.6,20.7z"/>
	</g>
	<path class="st0" d="M28.8,3.2C13.6,3.2,1.3,15.5,1.3,30.6C1.3,45.7,13.6,58,28.8,58s27.6-12.2,27.6-27.4
		C56.3,15.5,44,3.2,28.8,3.2z M14.4,13.1c1.4,0,2.6,1.1,2.6,2.5s-1.1,2.5-2.6,2.5c-1.4,0-2.5-1.1-2.5-2.5
		C11.9,14.2,13,13.1,14.4,13.1z M23.8,40.2c-1,0.4-2.2,0.7-3.5,0.7c-4.3,0-7.8-3.5-7.8-7.8v-12h4v11.2c0,2.7,2.1,4.8,4.8,4.8
		c0.9,0,1.7-0.1,2.5-0.5L23.8,40.2L23.8,40.2z M30.8,40.3h-4V21.1h4V40.3z M36.4,24.4c-0.9,0-1.7,0.1-2.5,0.5v-3.5
		c1-0.4,2.2-0.7,3.5-0.7c4.3,0,7.8,3.5,7.8,7.8v11.9h-4V29.2C41.2,26.5,39,24.4,36.4,24.4z M43.2,48.4c-1.4,0-2.6-1.1-2.6-2.5
		s1.1-2.5,2.6-2.5c1.4,0,2.6,1.1,2.6,2.5S44.6,48.4,43.2,48.4z"/>
	<g>
		<polygon class="st0" points="139.2,29.3 145.9,20.7 141.3,20.7 134.7,29.3 134.7,29.5 143.1,40.3 148,40.3 		"/>
		<rect x="128.9" y="12.5" class="st0" width="4" height="27.8"/>
	</g>
</g>
</svg>